<?xml version="1.0" encoding="UTF-8" standalone="no"?>
<!DOCTYPE svg PUBLIC "-//W3C//DTD SVG 1.1//EN"
 "http://www.w3.org/Graphics/SVG/1.1/DTD/svg11.dtd">
<!-- Generated by graphviz version 2.46.0 (20210119.1425)
 -->
<!-- Title: dependencies Pages: 1 -->
<svg width="736pt" height="211pt"
 viewBox="0.00 0.00 736.00 211.00" xmlns="http://www.w3.org/2000/svg" xmlns:xlink="http://www.w3.org/1999/xlink">
<g id="graph0" class="graph" transform="scale(1 1) rotate(0) translate(4 207)">
<title>dependencies</title>
<polygon fill="white" stroke="transparent" points="-4,4 -4,-207 732,-207 732,4 -4,4"/>
<text text-anchor="start" x="343.01" y="-42.4" font-family="sans-serif" font-weight="bold" font-size="14.00">Legend</text>
<polygon fill="#ffffb3" stroke="transparent" points="130,-10 130,-30 150,-30 150,-10 130,-10"/>
<text text-anchor="start" x="153.63" y="-15.4" font-family="sans-serif" font-size="14.00"> &#160;Declarations</text>
<polygon fill="#8dd3c7" stroke="transparent" points="243,-10 243,-30 263,-30 263,-10 243,-10"/>
<text text-anchor="start" x="266.73" y="-15.4" font-family="sans-serif" font-size="14.00"> &#160;Module</text>
<polygon fill="#80b1d3" stroke="transparent" points="329,-10 329,-30 349,-30 349,-10 329,-10"/>
<text text-anchor="start" x="352.78" y="-15.4" font-family="sans-serif" font-size="14.00"> &#160;Bootstrap</text>
<polygon fill="#fdb462" stroke="transparent" points="426,-10 426,-30 446,-30 446,-10 426,-10"/>
<text text-anchor="start" x="449.67" y="-15.4" font-family="sans-serif" font-size="14.00"> &#160;Providers</text>
<polygon fill="#fb8072" stroke="transparent" points="522,-10 522,-30 542,-30 542,-10 522,-10"/>
<text text-anchor="start" x="545.73" y="-15.4" font-family="sans-serif" font-size="14.00"> &#160;Exports</text>
<g id="clust1" class="cluster">
<title>cluster_AuthModule</title>
<polygon fill="none" stroke="black" stroke-dasharray="1,5" points="8,-70 8,-195 720,-195 720,-70 8,-70"/>
</g>
<g id="clust3" class="cluster">
<title>cluster_AuthModule_imports</title>
<polygon fill="none" stroke="black" points="610,-78 610,-130 712,-130 712,-78 610,-78"/>
</g>
<g id="clust6" class="cluster">
<title>cluster_AuthModule_providers</title>
<polygon fill="none" stroke="black" points="16,-78 16,-130 602,-130 602,-78 16,-78"/>
</g>
<!-- UserModule -->
<g id="node1" class="node">
<title>UserModule</title>
<polygon fill="#8dd3c7" stroke="black" points="703.98,-122 700.98,-126 679.98,-126 676.98,-122 618.02,-122 618.02,-86 703.98,-86 703.98,-122"/>
<text text-anchor="middle" x="661" y="-99.8" font-family="Times,serif" font-size="14.00">UserModule</text>
</g>
<!-- AuthModule -->
<g id="node2" class="node">
<title>AuthModule</title>
<polygon fill="#8dd3c7" stroke="black" points="444.55,-187 441.55,-191 420.55,-191 417.55,-187 357.45,-187 357.45,-151 444.55,-151 444.55,-187"/>
<text text-anchor="middle" x="401" y="-164.8" font-family="Times,serif" font-size="14.00">AuthModule</text>
</g>
<!-- UserModule&#45;&gt;AuthModule -->
<g id="edge1" class="edge">
<title>UserModule&#45;&gt;AuthModule</title>
<path fill="none" stroke="black" d="M661,-122.28C661,-143.32 661,-175 661,-175 661,-175 454.81,-175 454.81,-175"/>
<polygon fill="black" stroke="black" points="454.81,-171.5 444.81,-175 454.81,-178.5 454.81,-171.5"/>
</g>
<!-- AuthService -->
<g id="node3" class="node">
<title>AuthService</title>
<ellipse fill="#fdb462" stroke="black" cx="535" cy="-104" rx="59.11" ry="18"/>
<text text-anchor="middle" x="535" y="-99.8" font-family="Times,serif" font-size="14.00">AuthService</text>
</g>
<!-- AuthService&#45;&gt;AuthModule -->
<g id="edge2" class="edge">
<title>AuthService&#45;&gt;AuthModule</title>
<path fill="none" stroke="black" d="M535,-122.02C535,-139.37 535,-163 535,-163 535,-163 454.88,-163 454.88,-163"/>
<polygon fill="black" stroke="black" points="454.88,-159.5 444.88,-163 454.88,-166.5 454.88,-159.5"/>
</g>
<!-- JwtStrategy -->
<g id="node4" class="node">
<title>JwtStrategy</title>
<ellipse fill="#fdb462" stroke="black" cx="401" cy="-104" rx="56.76" ry="18"/>
<text text-anchor="middle" x="401" y="-99.8" font-family="Times,serif" font-size="14.00">JwtStrategy</text>
</g>
<!-- JwtStrategy&#45;&gt;AuthModule -->
<g id="edge3" class="edge">
<title>JwtStrategy&#45;&gt;AuthModule</title>
<path fill="none" stroke="black" d="M401,-122.11C401,-122.11 401,-140.99 401,-140.99"/>
<polygon fill="black" stroke="black" points="397.5,-140.99 401,-150.99 404.5,-140.99 397.5,-140.99"/>
</g>
<!-- LocalStrategy -->
<g id="node5" class="node">
<title>LocalStrategy</title>
<ellipse fill="#fdb462" stroke="black" cx="261" cy="-104" rx="65.41" ry="18"/>
<text text-anchor="middle" x="261" y="-99.8" font-family="Times,serif" font-size="14.00">LocalStrategy</text>
</g>
<!-- LocalStrategy&#45;&gt;AuthModule -->
<g id="edge4" class="edge">
<title>LocalStrategy&#45;&gt;AuthModule</title>
<path fill="none" stroke="black" d="M261,-122.02C261,-139.37 261,-163 261,-163 261,-163 347.09,-163 347.09,-163"/>
<polygon fill="black" stroke="black" points="347.09,-166.5 357.09,-163 347.09,-159.5 347.09,-166.5"/>
</g>
<!-- PasswordService -->
<g id="node6" class="node">
<title>PasswordService</title>
<ellipse fill="#fdb462" stroke="black" cx="101" cy="-104" rx="77" ry="18"/>
<text text-anchor="middle" x="101" y="-99.8" font-family="Times,serif" font-size="14.00">PasswordService</text>
</g>
<!-- PasswordService&#45;&gt;AuthModule -->
<g id="edge5" class="edge">
<title>PasswordService&#45;&gt;AuthModule</title>
<path fill="none" stroke="black" d="M101,-122.28C101,-143.32 101,-175 101,-175 101,-175 347.38,-175 347.38,-175"/>
<polygon fill="black" stroke="black" points="347.38,-178.5 357.38,-175 347.38,-171.5 347.38,-178.5"/>
</g>
</g>
</svg>
