<?xml version="1.0" encoding="UTF-8" standalone="no"?>
<!DOCTYPE svg PUBLIC "-//W3C//DTD SVG 1.1//EN"
 "http://www.w3.org/Graphics/SVG/1.1/DTD/svg11.dtd">
<!-- Generated by graphviz version 2.46.0 (20210119.1425)
 -->
<!-- Title: dependencies Pages: 1 -->
<svg width="953pt" height="352pt"
 viewBox="0.00 0.00 953.00 352.00" xmlns="http://www.w3.org/2000/svg" xmlns:xlink="http://www.w3.org/1999/xlink">
<g id="graph0" class="graph" transform="scale(1 1) rotate(0) translate(4 348)">
<title>dependencies</title>
<polygon fill="white" stroke="transparent" points="-4,4 -4,-348 949,-348 949,4 -4,4"/>
<text text-anchor="start" x="451.51" y="-42.4" font-family="sans-serif" font-weight="bold" font-size="14.00">Legend</text>
<polygon fill="#ffffb3" stroke="transparent" points="238.5,-10 238.5,-30 258.5,-30 258.5,-10 238.5,-10"/>
<text text-anchor="start" x="262.13" y="-15.4" font-family="sans-serif" font-size="14.00"> &#160;Declarations</text>
<polygon fill="#8dd3c7" stroke="transparent" points="351.5,-10 351.5,-30 371.5,-30 371.5,-10 351.5,-10"/>
<text text-anchor="start" x="375.23" y="-15.4" font-family="sans-serif" font-size="14.00"> &#160;Module</text>
<polygon fill="#80b1d3" stroke="transparent" points="437.5,-10 437.5,-30 457.5,-30 457.5,-10 437.5,-10"/>
<text text-anchor="start" x="461.28" y="-15.4" font-family="sans-serif" font-size="14.00"> &#160;Bootstrap</text>
<polygon fill="#fdb462" stroke="transparent" points="534.5,-10 534.5,-30 554.5,-30 554.5,-10 534.5,-10"/>
<text text-anchor="start" x="558.17" y="-15.4" font-family="sans-serif" font-size="14.00"> &#160;Providers</text>
<polygon fill="#fb8072" stroke="transparent" points="630.5,-10 630.5,-30 650.5,-30 650.5,-10 630.5,-10"/>
<text text-anchor="start" x="654.23" y="-15.4" font-family="sans-serif" font-size="14.00"> &#160;Exports</text>
<g id="clust1" class="cluster">
<title>cluster_AppModule</title>
<polygon fill="none" stroke="black" stroke-dasharray="1,5" points="305,-146 305,-336 669,-336 669,-146 305,-146"/>
</g>
<g id="clust3" class="cluster">
<title>cluster_AppModule_imports</title>
<polygon fill="none" stroke="black" points="313,-154 313,-271 661,-271 661,-154 313,-154"/>
</g>
<g id="clust7" class="cluster">
<title>cluster_AuthModule</title>
<polygon fill="none" stroke="black" stroke-dasharray="1,5" points="8,-70 8,-138 610,-138 610,-70 8,-70"/>
</g>
<g id="clust12" class="cluster">
<title>cluster_AuthModule_providers</title>
<polygon fill="none" stroke="black" points="16,-78 16,-130 602,-130 602,-78 16,-78"/>
</g>
<g id="clust25" class="cluster">
<title>cluster_UserModule</title>
<polygon fill="none" stroke="black" stroke-dasharray="1,5" points="677,-211 677,-279 937,-279 937,-211 677,-211"/>
</g>
<g id="clust28" class="cluster">
<title>cluster_UserModule_exports</title>
<polygon fill="none" stroke="black" points="825,-219 825,-271 929,-271 929,-219 825,-219"/>
</g>
<g id="clust30" class="cluster">
<title>cluster_UserModule_providers</title>
<polygon fill="none" stroke="black" points="685,-219 685,-271 817,-271 817,-219 685,-219"/>
</g>
<!-- AuthModule -->
<g id="node1" class="node">
<title>AuthModule</title>
<polygon fill="#8dd3c7" stroke="black" points="408.55,-263 405.55,-267 384.55,-267 381.55,-263 321.45,-263 321.45,-227 408.55,-227 408.55,-263"/>
<text text-anchor="middle" x="365" y="-240.8" font-family="Times,serif" font-size="14.00">AuthModule</text>
</g>
<!-- AppModule -->
<g id="node5" class="node">
<title>AppModule</title>
<polygon fill="#8dd3c7" stroke="black" points="511.66,-328 508.66,-332 487.66,-332 484.66,-328 428.34,-328 428.34,-292 511.66,-292 511.66,-328"/>
<text text-anchor="middle" x="470" y="-305.8" font-family="Times,serif" font-size="14.00">AppModule</text>
</g>
<!-- AuthModule&#45;&gt;AppModule -->
<g id="edge1" class="edge">
<title>AuthModule&#45;&gt;AppModule</title>
<path fill="none" stroke="black" d="M408.67,-256C422.95,-256 435.22,-256 435.22,-256 435.22,-256 435.22,-281.72 435.22,-281.72"/>
<polygon fill="black" stroke="black" points="431.72,-281.72 435.22,-291.72 438.72,-281.72 431.72,-281.72"/>
</g>
<!-- CommonModule -->
<g id="node2" class="node">
<title>CommonModule</title>
<polygon fill="#8dd3c7" stroke="black" points="432.67,-198 429.67,-202 408.67,-202 405.67,-198 321.33,-198 321.33,-162 432.67,-162 432.67,-198"/>
<text text-anchor="middle" x="377" y="-175.8" font-family="Times,serif" font-size="14.00">CommonModule</text>
</g>
<!-- CommonModule&#45;&gt;AppModule -->
<g id="edge2" class="edge">
<title>CommonModule&#45;&gt;AppModule</title>
<path fill="none" stroke="black" d="M432.85,-180C435.82,-180 437.61,-180 437.61,-180 437.61,-180 437.61,-281.92 437.61,-281.92"/>
<polygon fill="black" stroke="black" points="434.11,-281.92 437.61,-291.92 441.11,-281.92 434.11,-281.92"/>
</g>
<!-- ConfigModule -->
<g id="node3" class="node">
<title>ConfigModule</title>
<polygon fill="#8dd3c7" stroke="black" points="549.44,-198 546.44,-202 525.44,-202 522.44,-198 450.56,-198 450.56,-162 549.44,-162 549.44,-198"/>
<text text-anchor="middle" x="500" y="-175.8" font-family="Times,serif" font-size="14.00">ConfigModule</text>
</g>
<!-- ConfigModule&#45;&gt;AppModule -->
<g id="edge3" class="edge">
<title>ConfigModule&#45;&gt;AppModule</title>
<path fill="none" stroke="black" d="M481.3,-198.08C481.3,-198.08 481.3,-281.66 481.3,-281.66"/>
<polygon fill="black" stroke="black" points="477.8,-281.66 481.3,-291.66 484.8,-281.66 477.8,-281.66"/>
</g>
<!-- UserModule -->
<g id="node4" class="node">
<title>UserModule</title>
<polygon fill="#8dd3c7" stroke="black" points="652.98,-198 649.98,-202 628.98,-202 625.98,-198 567.02,-198 567.02,-162 652.98,-162 652.98,-198"/>
<text text-anchor="middle" x="610" y="-175.8" font-family="Times,serif" font-size="14.00">UserModule</text>
</g>
<!-- UserModule&#45;&gt;AuthModule -->
<g id="edge5" class="edge">
<title>UserModule&#45;&gt;AuthModule</title>
<path fill="none" stroke="black" d="M588.51,-198.27C588.51,-216.56 588.51,-242 588.51,-242 588.51,-242 418.62,-242 418.62,-242"/>
<polygon fill="black" stroke="black" points="418.62,-238.5 408.62,-242 418.62,-245.5 418.62,-238.5"/>
</g>
<!-- UserModule&#45;&gt;AppModule -->
<g id="edge4" class="edge">
<title>UserModule&#45;&gt;AppModule</title>
<path fill="none" stroke="black" d="M610,-198.08C610,-233.8 610,-310 610,-310 610,-310 522,-310 522,-310"/>
<polygon fill="black" stroke="black" points="522,-306.5 512,-310 522,-313.5 522,-306.5"/>
</g>
<!-- UserService  -->
<g id="node10" class="node">
<title>UserService </title>
<polygon fill="#fb8072" stroke="black" points="920.9,-263 833.1,-263 833.1,-227 920.9,-227 920.9,-263"/>
<text text-anchor="middle" x="877" y="-240.8" font-family="Times,serif" font-size="14.00">UserService </text>
</g>
<!-- UserModule&#45;&gt;UserService  -->
<g id="edge10" class="edge">
<title>UserModule&#45;&gt;UserService </title>
<path fill="none" stroke="black" stroke-dasharray="5,2" d="M653.19,-180C728.76,-180 877,-180 877,-180 877,-180 877,-216.89 877,-216.89"/>
<polygon fill="black" stroke="black" points="873.5,-216.89 877,-226.89 880.5,-216.89 873.5,-216.89"/>
</g>
<!-- AuthService -->
<g id="node6" class="node">
<title>AuthService</title>
<ellipse fill="#fdb462" stroke="black" cx="83" cy="-104" rx="59.11" ry="18"/>
<text text-anchor="middle" x="83" y="-99.8" font-family="Times,serif" font-size="14.00">AuthService</text>
</g>
<!-- AuthService&#45;&gt;AuthModule -->
<g id="edge6" class="edge">
<title>AuthService&#45;&gt;AuthModule</title>
<path fill="none" stroke="black" d="M83,-122.09C83,-161.99 83,-254 83,-254 83,-254 311.25,-254 311.25,-254"/>
<polygon fill="black" stroke="black" points="311.25,-257.5 321.25,-254 311.25,-250.5 311.25,-257.5"/>
</g>
<!-- JwtStrategy -->
<g id="node7" class="node">
<title>JwtStrategy</title>
<ellipse fill="#fdb462" stroke="black" cx="217" cy="-104" rx="56.76" ry="18"/>
<text text-anchor="middle" x="217" y="-99.8" font-family="Times,serif" font-size="14.00">JwtStrategy</text>
</g>
<!-- JwtStrategy&#45;&gt;AuthModule -->
<g id="edge7" class="edge">
<title>JwtStrategy&#45;&gt;AuthModule</title>
<path fill="none" stroke="black" d="M217,-122.14C217,-160.23 217,-245 217,-245 217,-245 311.4,-245 311.4,-245"/>
<polygon fill="black" stroke="black" points="311.4,-248.5 321.4,-245 311.4,-241.5 311.4,-248.5"/>
</g>
<!-- LocalStrategy -->
<g id="node8" class="node">
<title>LocalStrategy</title>
<ellipse fill="#fdb462" stroke="black" cx="357" cy="-104" rx="65.41" ry="18"/>
<text text-anchor="middle" x="357" y="-99.8" font-family="Times,serif" font-size="14.00">LocalStrategy</text>
</g>
<!-- LocalStrategy&#45;&gt;AuthModule -->
<g id="edge8" class="edge">
<title>LocalStrategy&#45;&gt;AuthModule</title>
<path fill="none" stroke="black" d="M306.48,-115.71C306.48,-148.02 306.48,-236 306.48,-236 306.48,-236 311.25,-236 311.25,-236"/>
<polygon fill="black" stroke="black" points="311.25,-239.5 321.25,-236 311.25,-232.5 311.25,-239.5"/>
</g>
<!-- PasswordService -->
<g id="node9" class="node">
<title>PasswordService</title>
<ellipse fill="#fdb462" stroke="black" cx="517" cy="-104" rx="77" ry="18"/>
<text text-anchor="middle" x="517" y="-99.8" font-family="Times,serif" font-size="14.00">PasswordService</text>
</g>
<!-- PasswordService&#45;&gt;AuthModule -->
<g id="edge9" class="edge">
<title>PasswordService&#45;&gt;AuthModule</title>
<path fill="none" stroke="black" d="M445.39,-110.68C445.39,-137.37 445.39,-235 445.39,-235 445.39,-235 418.96,-235 418.96,-235"/>
<polygon fill="black" stroke="black" points="418.96,-231.5 408.96,-235 418.96,-238.5 418.96,-231.5"/>
</g>
<!-- PasswordService&#45;&gt;UserModule -->
<g id="edge11" class="edge">
<title>PasswordService&#45;&gt;UserModule</title>
<path fill="none" stroke="black" d="M580.51,-114.25C580.51,-114.25 580.51,-151.77 580.51,-151.77"/>
<polygon fill="black" stroke="black" points="577.01,-151.77 580.51,-161.77 584.01,-151.77 577.01,-151.77"/>
</g>
<!-- UserService -->
<g id="node11" class="node">
<title>UserService</title>
<ellipse fill="#fdb462" stroke="black" cx="751" cy="-245" rx="58.44" ry="18"/>
<text text-anchor="middle" x="751" y="-240.8" font-family="Times,serif" font-size="14.00">UserService</text>
</g>
<!-- UserService&#45;&gt;UserModule -->
<g id="edge12" class="edge">
<title>UserService&#45;&gt;UserModule</title>
<path fill="none" stroke="black" d="M694.05,-249C663.27,-249 631.49,-249 631.49,-249 631.49,-249 631.49,-208.13 631.49,-208.13"/>
<polygon fill="black" stroke="black" points="634.99,-208.13 631.49,-198.13 627.99,-208.13 634.99,-208.13"/>
</g>
</g>
</svg>
